<?xml version="1.0"?>
<svg width="400" height="125.59440559440561" xmlns="http://www.w3.org/2000/svg" xmlns:svg="http://www.w3.org/2000/svg">
 <g class="layer">
  <title>Layer 1</title>
  <g id="svgg">
   <path d="m64.118714,15.764c-0.321,0.038 -1.446,0.148 -2.5,0.245c-2.669,0.245 -7.076,1.143 -9.489,1.931c-1.002,0.328 -2.965,1.039 -3.594,1.301c-0.275,0.115 -0.763,0.308 -1.083,0.429c-9.099,3.425 -19.048,12.805 -23.988,22.616c-11.38,22.599 -3.305,50.462 18.321,63.218c12.799,7.55 28.495,8.918 42.083,3.67c21.397,-8.265 34.478,-31.1 30.412,-53.091c-3.844,-20.795 -19.01,-35.992 -39.578,-39.658c-2.85,-0.508 -8.747,-0.877 -10.584,-0.661m23.215,19.139c0.986,0.748 0.802,4.963 -0.233,5.326c-1.286,0.451 -1.815,-0.345 -1.815,-2.732c0,-2.444 0.841,-3.509 2.048,-2.594m-20.273,0.496c3.335,0.888 5.892,4.314 5.892,7.896c0,5.365 5.608,8.101 8.903,4.343c1.324,-1.509 1.468,-1.638 1.838,-1.638c2.424,0 0.749,3.697 -2.308,5.097c-5.337,2.444 -10.38,-1.026 -10.921,-7.514c-0.418,-5.008 -4.659,-7.473 -8.283,-4.814c-0.54,0.397 -1.612,1.9 -1.768,2.481c-0.05,0.183 -0.143,0.46 -0.206,0.615c-0.107,0.258 0.164,0.286 3.226,0.333c4.407,0.068 4.074,-0.245 4.185,3.93l0.084,3.12l1.297,0.696c12.359,6.624 16.223,21.189 8.667,32.666c-5.167,7.848 -15.496,11.85 -24.256,9.398c-0.344,-0.096 -0.869,-0.242 -1.167,-0.324c-1.116,-0.307 -2.087,-0.724 -3.782,-1.62c-16.388,-8.674 -16.059,-31.991 0.568,-40.228c0.783,-0.387 1.424,-0.753 1.426,-0.812c0.002,-0.059 0.021,-1.382 0.042,-2.941c0.054,-3.997 -0.034,-3.916 4.281,-3.916l2.777,0l0.218,-0.875c1.042,-4.178 5.382,-6.933 9.287,-5.893m15.346,3.143c1.871,1.82 2.074,2.495 0.969,3.219c-0.615,0.403 -1.117,0.138 -2.639,-1.394c-1.532,-1.541 -1.744,-2.112 -1.029,-2.774c0.762,-0.707 1.13,-0.577 2.699,0.949m11.2,-0.936c0.601,0.764 0.462,1.146 -0.946,2.595c-1.58,1.628 -2.036,1.9 -2.67,1.596c-1.163,-0.557 -1.034,-1.463 0.409,-2.879c1.989,-1.951 2.53,-2.173 3.207,-1.312m45.429,0.57c-1.192,0.066 -3.123,0.128 -4.292,0.138l-2.125,0.019l0,25.319l0,25.318l1.375,0.1c18.122,1.321 26.004,-0.53 33.214,-7.8c12.032,-12.132 8.393,-32.68 -7.172,-40.493c-4.658,-2.338 -11.162,-3.143 -21,-2.601m159.917,0.075c-19.484,2.129 -29.343,23.787 -18.356,40.325c7.237,10.894 22.583,14.273 33.715,7.424c0.447,-0.275 0.849,-0.5 0.893,-0.5c0.045,0 0.081,0.712 0.081,1.583l0,1.584l4.917,0l4.916,0l0,-12.167l0,-12.167l-11.649,0c-10.468,0 -11.659,0.027 -11.75,0.264c-0.132,0.344 -0.132,8.795 0,9.139c0.09,0.233 0.729,0.264 5.473,0.264c5.927,0 5.757,-0.026 5.139,0.784c-2.639,3.459 -9.865,5.278 -14.963,3.765c-12.789,-3.797 -13.912,-23.393 -1.665,-29.062c5.943,-2.751 13.383,-0.963 17.539,4.214l0.362,0.452l0.882,-0.253c0.485,-0.139 1.445,-0.426 2.132,-0.636c0.688,-0.211 1.7,-0.513 2.25,-0.67c0.55,-0.158 1.188,-0.349 1.417,-0.425c0.229,-0.076 0.998,-0.309 1.708,-0.518c1.492,-0.437 1.484,-0.418 0.688,-1.762c-3.307,-5.591 -9.145,-9.763 -15.608,-11.155c-1.117,-0.24 -5.386,-0.749 -5.955,-0.71c-0.137,0.01 -1.112,0.112 -2.166,0.227m-38.5,13.594c0,8.18 -0.06,13.328 -0.156,13.294c-0.122,-0.044 -2.931,-2.472 -3.904,-3.375c-0.208,-0.193 -2.477,-2.187 -3.43,-3.014c-0.317,-0.275 -1.034,-0.913 -1.594,-1.417c-0.559,-0.504 -1.276,-1.142 -1.592,-1.419c-0.316,-0.276 -2.824,-2.487 -5.574,-4.914c-2.75,-2.427 -5.258,-4.638 -5.574,-4.914c-0.315,-0.277 -0.994,-0.878 -1.508,-1.336c-4.045,-3.604 -6.499,-5.75 -6.577,-5.75c-0.05,0 -0.091,11.251 -0.091,25.002l0,25.003l5.291,-0.044l5.292,-0.044l0.043,-13.125c0.023,-7.219 0.081,-13.125 0.129,-13.125c0.047,0 1.416,1.169 3.041,2.599c4.762,4.191 4.879,4.293 10.454,9.138c6.542,5.686 6.334,5.505 7.253,6.334c0.414,0.373 1.237,1.091 1.83,1.595c0.593,0.504 1.416,1.224 1.83,1.599c0.415,0.376 0.941,0.84 1.17,1.032c0.614,0.515 1,0.85 2.183,1.897c1.429,1.264 1.918,1.639 2.135,1.639c0.132,0 0.171,-6.954 0.141,-24.958l-0.042,-24.959l-5.375,-0.044l-5.375,-0.044l0,13.35m71.078,-13.139c-0.045,0.116 -0.061,11.461 -0.038,25.211l0.043,25l5.292,0.044l5.292,0.044l-0.042,-25.211l-0.042,-25.211l-5.213,-0.044c-4.08,-0.034 -5.23,0.002 -5.292,0.167m16.164,0.004c-0.045,0.117 -0.061,2.198 -0.037,4.626l0.045,4.414l5.458,0.044l5.458,0.044l0,20.581l0,20.581l5.334,0l5.333,0l0,-20.583l0,-20.584l5.419,0l5.42,0l-0.045,-4.625l-0.044,-4.625l-16.13,-0.042c-12.921,-0.034 -16.146,-0.001 -16.211,0.169m-145.742,0.104c0,0.082 -0.853,1.9 -1.895,4.042c-1.043,2.142 -2.422,4.981 -3.065,6.311c-0.643,1.329 -1.974,4.066 -2.958,6.083c-0.983,2.017 -2.426,4.979 -3.205,6.583c-3.787,7.791 -4.427,9.108 -5.671,11.667c-0.736,1.512 -2.254,4.625 -3.375,6.917c-2.962,6.059 -3.998,8.241 -3.998,8.425c0,0.103 1.808,0.147 4.952,0.119l4.953,-0.044l1.581,-3.209l1.582,-3.208l11.373,0l11.374,0l1.426,2.958c0.784,1.627 1.49,3.071 1.569,3.209c0.173,0.302 10.023,0.472 10.023,0.172c0,-0.091 -0.684,-1.573 -1.519,-3.294c-2.243,-4.616 -4.197,-8.641 -5.565,-11.462c-0.667,-1.375 -2.128,-4.375 -3.248,-6.666c-1.12,-2.292 -2.582,-5.292 -3.249,-6.667c-0.667,-1.375 -1.906,-3.925 -2.754,-5.667c-0.847,-1.741 -2.159,-4.441 -2.916,-6c-5.051,-10.405 -5.415,-11.097 -5.415,-10.269m-120.624,4.504c0.976,0.371 1.148,1.723 0.278,2.188c-0.406,0.218 -4.094,0.205 -4.507,-0.016c-0.806,-0.432 -0.762,-1.643 0.076,-2.056c0.595,-0.293 3.475,-0.374 4.153,-0.116m14.806,0.327c1.043,1.287 0.101,2.022 -2.591,2.022c-2.625,0 -3.433,-0.63 -2.507,-1.952c0.494,-0.705 4.54,-0.76 5.098,-0.07m-42.793,1.155c-0.121,0.075 -0.21,1.06 -0.251,2.783c-0.075,3.081 -0.127,3.228 -1.34,3.749c-5.106,2.192 -8.445,5.19 -10.691,9.597c-6.62,12.996 2.421,28.603 16.912,29.191c10.401,0.421 18.686,-6.317 20.804,-16.92c1.666,-8.338 -3.634,-17.851 -11.99,-21.52c-1.651,-0.726 -1.667,-0.763 -1.667,-4.005c0,-2.332 -0.042,-2.822 -0.248,-2.901c-0.359,-0.138 -11.307,-0.113 -11.529,0.026m38.672,3.325c1.954,1.818 2.265,2.435 1.627,3.223c-0.629,0.777 -1.359,0.553 -2.794,-0.856c-1.782,-1.751 -2.095,-2.69 -1.082,-3.241c0.731,-0.397 0.992,-0.295 2.249,0.874m-4.344,1.208c0.699,1.356 0.266,4.491 -0.669,4.847c-1.458,0.554 -2.486,-3.163 -1.378,-4.981c0.494,-0.81 1.598,-0.737 2.047,0.134m63.949,-0.261c4.246,0.938 7.509,3.368 9.58,7.138c3.296,6.001 2.498,12.806 -2.163,18.435c-1.287,1.555 -4.183,3.249 -6.565,3.841c-1.39,0.345 -8.174,0.533 -8.921,0.246c-0.238,-0.091 -0.264,-1.559 -0.264,-14.905l0,-14.805l0.458,-0.069c1.26,-0.191 6.854,-0.106 7.875,0.119m51.12,11.105c2.781,5.563 6.547,13.418 6.547,13.657c0,0.108 -2.492,0.166 -7.083,0.166c-4.09,0 -7.084,-0.063 -7.084,-0.15c0,-0.083 0.741,-1.676 1.647,-3.542c1.565,-3.225 3.835,-7.944 4.817,-10.014c0.525,-1.108 0.654,-1.121 1.156,-0.117m-127.298,15.929c1.136,1.445 -3.284,7.102 -7.713,9.873c-4.324,2.704 -10.373,3.228 -14.859,1.287c-0.275,-0.119 -0.736,-0.308 -1.025,-0.421c-1.331,-0.52 -1.642,-1.788 -0.588,-2.4l0.553,-0.322l1.124,0.441c6.972,2.735 14.004,0.87 18.151,-4.814c0.334,-0.458 0.655,-0.871 0.714,-0.917c0.058,-0.046 0.5,-0.721 0.981,-1.5c0.987,-1.599 1.053,-1.66 1.787,-1.664c0.375,-0.002 0.63,0.125 0.875,0.437" fill="#ffffff" fill-rule="evenodd" id="path1"/>
  </g>
 </g>
</svg>