<?xml version="1.0"?>
<svg width="400" height="125.59440559440559" xmlns="http://www.w3.org/2000/svg" xmlns:svg="http://www.w3.org/2000/svg">
 <g class="layer">
  <title>Layer 1</title>
  <g id="svgg">
   <path d="m0,62.75l0,62.75l200,0l200,0l0,-62.75l0,-62.75l-200,0l-200,0l0,62.75m71.417,-46.746c21.719,2.388 38.537,18.219 42.578,40.079c3.437,18.588 -5.658,38.744 -22.069,48.91c-24.188,14.983 -55.742,6.222 -68.708,-19.076c-7.639,-14.907 -6.804,-33.414 2.146,-47.558c5.043,-7.969 14.219,-15.834 21.803,-18.689c0.32,-0.121 0.808,-0.314 1.083,-0.429c0.275,-0.115 1.025,-0.398 1.667,-0.63c3.629,-1.312 7.85,-2.274 11.416,-2.602c1.054,-0.097 2.179,-0.207 2.5,-0.245c0.948,-0.111 5.782,0.042 7.584,0.24m14.235,18.876c-1.11,0.853 -0.881,5.097 0.291,5.392c1.198,0.3 1.699,-0.486 1.714,-2.69c0.017,-2.437 -0.842,-3.595 -2.005,-2.702m-22.402,0.529c-2.698,0.667 -5.064,3.082 -5.762,5.883l-0.218,0.875l-2.777,0c-4.315,0 -4.227,-0.081 -4.281,3.916c-0.021,1.559 -0.04,2.882 -0.042,2.941c-0.002,0.059 -0.643,0.425 -1.426,0.812c-16.627,8.237 -16.956,31.554 -0.568,40.228c1.695,0.896 2.666,1.313 3.782,1.62c0.298,0.082 0.823,0.228 1.167,0.324c8.76,2.452 19.089,-1.55 24.256,-9.398c7.556,-11.477 3.692,-26.042 -8.667,-32.666l-1.297,-0.696l-0.084,-3.12c-0.111,-4.175 0.222,-3.862 -4.185,-3.93c-3.062,-0.047 -3.333,-0.075 -3.226,-0.333c0.063,-0.155 0.156,-0.432 0.206,-0.615c0.156,-0.581 1.228,-2.084 1.768,-2.481c3.624,-2.659 7.865,-0.194 8.283,4.814c0.541,6.488 5.584,9.958 10.921,7.514c3.057,-1.4 4.732,-5.097 2.308,-5.097c-0.37,0 -0.514,0.129 -1.838,1.638c-3.295,3.758 -8.903,1.022 -8.903,-4.343c0,-5.123 -4.694,-9.053 -9.417,-7.886m16.172,2.184c-0.715,0.662 -0.503,1.233 1.029,2.774c1.522,1.532 2.024,1.797 2.639,1.394c1.105,-0.724 0.902,-1.399 -0.969,-3.219c-1.569,-1.526 -1.937,-1.656 -2.699,-0.949m12.132,-0.026c-2.739,2.327 -3.272,3.548 -1.849,4.23c0.787,0.377 3.962,-2.299 3.962,-3.339c0,-1.131 -1.223,-1.647 -2.113,-0.891m57.275,0.604c7.517,0.466 12.91,2.753 17.678,7.496c12.259,12.194 9.237,32.445 -6.026,40.386c-6.365,3.312 -12.791,4.036 -26.773,3.017l-1.375,-0.1l0,-25.318l0,-25.319l2.125,-0.019c1.169,-0.01 3.1,-0.072 4.292,-0.138c3.418,-0.189 7.091,-0.19 10.079,-0.005m154.504,0.07c3.886,0.404 5.702,0.896 8.917,2.415c4.154,1.962 7.816,5.294 10.146,9.233c0.796,1.344 0.804,1.325 -0.688,1.762c-0.71,0.209 -1.479,0.442 -1.708,0.518c-0.229,0.076 -0.867,0.267 -1.417,0.425c-0.55,0.157 -1.562,0.459 -2.25,0.67c-0.687,0.21 -1.647,0.497 -2.132,0.636l-0.882,0.253l-0.362,-0.452c-4.726,-5.887 -13.139,-7.219 -19.58,-3.1c-8.803,5.632 -8.557,21.258 0.418,26.549c5.624,3.316 14.828,2.122 18.251,-2.366c0.618,-0.81 0.788,-0.784 -5.139,-0.784c-4.744,0 -5.383,-0.031 -5.473,-0.264c-0.132,-0.344 -0.132,-8.795 0,-9.139c0.091,-0.237 1.282,-0.264 11.75,-0.264l11.649,0l0,12.167l0,12.167l-4.916,0l-4.917,0l0,-1.584c0,-0.871 -0.036,-1.583 -0.081,-1.583c-0.044,0 -0.446,0.225 -0.893,0.5c-16.709,10.281 -38.204,-2.242 -38.19,-22.25c0.01,-14.28 10.129,-24.694 24.997,-25.726c0.138,-0.009 1.263,0.088 2.5,0.217m-32.374,25.301c0.03,18.004 -0.009,24.958 -0.141,24.958c-0.217,0 -0.706,-0.375 -2.135,-1.639c-1.183,-1.047 -1.569,-1.382 -2.183,-1.897c-0.229,-0.192 -0.755,-0.656 -1.17,-1.032c-0.414,-0.375 -1.237,-1.095 -1.83,-1.599c-0.593,-0.504 -1.416,-1.222 -1.83,-1.595c-0.919,-0.829 -0.711,-0.648 -7.253,-6.334c-5.575,-4.845 -5.692,-4.947 -10.454,-9.138c-1.625,-1.43 -2.994,-2.599 -3.041,-2.599c-0.048,0 -0.106,5.906 -0.129,13.125l-0.043,13.125l-5.292,0.044l-5.291,0.044l0,-25.003c0,-13.751 0.041,-25.002 0.091,-25.002c0.078,0 2.532,2.146 6.577,5.75c0.514,0.458 1.193,1.059 1.508,1.336c0.316,0.276 2.824,2.487 5.574,4.914c2.75,2.427 5.258,4.638 5.574,4.914c0.316,0.277 1.033,0.915 1.592,1.419c0.56,0.504 1.277,1.142 1.594,1.417c0.953,0.827 3.222,2.821 3.43,3.014c0.973,0.903 3.782,3.331 3.904,3.375c0.096,0.034 0.156,-5.114 0.156,-13.294l0,-13.35l5.375,0.044l5.375,0.044l0.042,24.959m70.833,0.252l0.042,25.211l-5.292,-0.044l-5.292,-0.044l-0.043,-25c-0.023,-13.75 -0.007,-25.095 0.038,-25.211c0.062,-0.165 1.212,-0.201 5.292,-0.167l5.213,0.044l0.042,25.211m38.002,-20.586l0.045,4.625l-5.42,0l-5.419,0l0,20.584l0,20.583l-5.333,0l-5.334,0l0,-20.581l0,-20.581l-5.458,-0.044l-5.458,-0.044l-0.045,-4.414c-0.024,-2.428 -0.008,-4.509 0.037,-4.626c0.065,-0.17 3.29,-0.203 16.211,-0.169l16.13,0.042l0.044,4.625m-175.935,-0.75c1.016,2.086 2.467,5.067 3.223,6.625c0.757,1.559 2.069,4.259 2.916,6c0.848,1.742 2.087,4.292 2.754,5.667c0.667,1.375 2.129,4.375 3.249,6.667c1.12,2.291 2.581,5.291 3.248,6.666c1.368,2.821 3.322,6.846 5.565,11.462c0.835,1.721 1.519,3.203 1.519,3.294c0,0.3 -9.85,0.13 -10.023,-0.172c-0.079,-0.138 -0.785,-1.582 -1.569,-3.209l-1.426,-2.958l-11.374,0l-11.373,0l-1.582,3.208l-1.581,3.209l-4.953,0.044c-3.144,0.028 -4.952,-0.016 -4.952,-0.119c0,-0.184 1.036,-2.366 3.998,-8.425c1.121,-2.292 2.639,-5.405 3.375,-6.917c1.244,-2.559 1.884,-3.876 5.671,-11.667c0.779,-1.604 2.222,-4.566 3.205,-6.583c0.984,-2.017 2.315,-4.754 2.958,-6.083c0.643,-1.33 2.022,-4.169 3.065,-6.311c1.042,-2.142 1.895,-3.96 1.895,-4.042c0,-0.621 0.597,0.373 2.192,3.644m-126.969,0.976c-0.838,0.413 -0.882,1.624 -0.076,2.056c0.413,0.221 4.101,0.234 4.507,0.016c0.87,-0.465 0.698,-1.817 -0.278,-2.188c-0.678,-0.258 -3.558,-0.177 -4.153,0.116m14.486,-0.158c-0.827,0.178 -1.16,1.44 -0.543,2.057c0.558,0.558 4.35,0.499 4.925,-0.075c1.416,-1.417 -1.301,-2.646 -4.382,-1.982m-26.791,1.498c0.206,0.079 0.248,0.569 0.248,2.901c0,3.242 0.016,3.279 1.667,4.005c8.356,3.669 13.656,13.182 11.99,21.52c-2.118,10.603 -10.403,17.341 -20.804,16.92c-14.491,-0.588 -23.532,-16.195 -16.912,-29.191c2.246,-4.407 5.585,-7.405 10.691,-9.597c1.213,-0.521 1.265,-0.668 1.34,-3.749c0.041,-1.723 0.13,-2.708 0.251,-2.783c0.222,-0.139 11.17,-0.164 11.529,-0.026m24.894,2.477c-1.013,0.551 -0.7,1.49 1.082,3.241c1.435,1.409 2.165,1.633 2.794,0.856c0.638,-0.788 0.327,-1.405 -1.627,-3.223c-1.257,-1.169 -1.518,-1.271 -2.249,-0.874m-4.142,1.948c-1.108,1.818 -0.08,5.535 1.378,4.981c0.935,-0.356 1.368,-3.491 0.669,-4.847c-0.449,-0.871 -1.553,-0.944 -2.047,-0.134m58.121,-0.246l-0.458,0.069l0,14.805c0,13.346 0.026,14.814 0.264,14.905c0.747,0.287 7.531,0.099 8.921,-0.246c2.382,-0.592 5.278,-2.286 6.565,-3.841c4.661,-5.629 5.459,-12.434 2.163,-18.435c-2.071,-3.77 -5.334,-6.2 -9.58,-7.138c-1.021,-0.225 -6.615,-0.31 -7.875,-0.119m57.839,11.341c-0.982,2.07 -3.252,6.789 -4.817,10.014c-0.906,1.866 -1.647,3.459 -1.647,3.542c0,0.087 2.994,0.15 7.084,0.15c4.591,0 7.083,-0.058 7.083,-0.166c0,-0.239 -3.766,-8.094 -6.547,-13.657c-0.502,-1.004 -0.631,-0.991 -1.156,0.117m-127.738,15.5c-0.105,0.068 -0.585,0.76 -1.066,1.539c-0.481,0.779 -0.923,1.454 -0.981,1.5c-0.059,0.046 -0.38,0.459 -0.714,0.917c-4.147,5.684 -11.179,7.549 -18.151,4.814l-1.124,-0.441l-0.553,0.322c-1.054,0.612 -0.743,1.88 0.588,2.4c0.289,0.113 0.75,0.302 1.025,0.421c6.169,2.67 14.196,0.69 19.06,-4.701c1.784,-1.978 3.857,-5.077 3.857,-5.767c0,-0.786 -1.262,-1.439 -1.941,-1.004" fill="#000000" fill-rule="evenodd" id="path0"/>
  </g>
 </g>
</svg>